inDegrees=no
num_controls=7
num_derivatives=13
num_iterations=126
num_multipliers=7
num_parameters=0
num_slacks=7
num_states=26
objective=0.247263
objective_accelerations=0.000000
objective_balance=0.001788
objective_effort=0.049426
objective_height=0.187726
objective_ligament=0.008323
solver_duration=1693.933336
status=Solve_Succeeded
success=true
DataType=double
version=3
OpenSimVersion=4.5
endheader
time	/jointset/ground_pelvis/pelvis_tilt/value	/jointset/ground_pelvis/pelvis_tx/value	/jointset/ground_pelvis/pelvis_ty/value	/jointset/hip_l/hip_flexion_l/value	/jointset/hip_l/hip_adduction_l/value	/jointset/hip_l/hip_rotation_l/value	/jointset/back/lumbar_extension/value	/jointset/patellofemoral_l/patellar_flexion_l/value	/jointset/knee_l/knee_flexion_l/value	/jointset/knee_l/knee_adduction_l/value	/jointset/knee_l/knee_rotation_l/value	/jointset/ankle_l/ankle_angle_l/value	/jointset/subtalar_l/subtalar_angle_l/value	/jointset/ground_pelvis/pelvis_tilt/speed	/jointset/ground_pelvis/pelvis_tx/speed	/jointset/ground_pelvis/pelvis_ty/speed	/jointset/hip_l/hip_flexion_l/speed	/jointset/hip_l/hip_adduction_l/speed	/jointset/hip_l/hip_rotation_l/speed	/jointset/back/lumbar_extension/speed	/jointset/patellofemoral_l/patellar_flexion_l/speed	/jointset/knee_l/knee_flexion_l/speed	/jointset/knee_l/knee_adduction_l/speed	/jointset/knee_l/knee_rotation_l/speed	/jointset/ankle_l/ankle_angle_l/speed	/jointset/subtalar_l/subtalar_angle_l/speed	/forceset/tau_hip_flexion_l	/forceset/tau_hip_adduction_l	/forceset/tau_hip_rotation_l	/forceset/tau_knee_flexion_l	/forceset/tau_ankle_angle_l	/forceset/tau_subtalar_angle_l	/forceset/tau_lumbar_extension	lambda_cid13_p0	lambda_cid13_p1	lambda_cid13_p2	lambda_cid13_p3	lambda_cid13_p4	lambda_cid13_p5	lambda_cid14_p0	/jointset/ground_pelvis/pelvis_tilt/accel	/jointset/ground_pelvis/pelvis_tx/accel	/jointset/ground_pelvis/pelvis_ty/accel	/jointset/hip_l/hip_flexion_l/accel	/jointset/hip_l/hip_adduction_l/accel	/jointset/hip_l/hip_rotation_l/accel	/jointset/back/lumbar_extension/accel	/jointset/patellofemoral_l/patellar_flexion_l/accel	/jointset/knee_l/knee_flexion_l/accel	/jointset/knee_l/knee_adduction_l/accel	/jointset/knee_l/knee_rotation_l/accel	/jointset/ankle_l/ankle_angle_l/accel	/jointset/subtalar_l/subtalar_angle_l/accel	gamma_cid13_p0	gamma_cid13_p1	gamma_cid13_p2	gamma_cid13_p3	gamma_cid13_p4	gamma_cid13_p5	gamma_cid14_p0
1	-0.2041143219166229	-0.01617945238644714	0.3560748524075166	2.181624648945752	-0.2420668990192774	0.4865454132176876	-0.4362519487595222	2.181619679568842	2.181619679568825	0.08919664418428896	-0.1744816092726413	0.4361999816671147	0.4196779654625961	-0.00263459857445534	-0.0008436850982942376	-0.0005336513507841178	0.0006552822705450794	0.01023472698886032	0.07376163670950825	0.003625852084712471	0.0004172737032361303	0.0004172737032360963	-0.05976070143835566	-0.01440880654966739	-0.0006854300466791123	0.01564905229737923	-0.1023765545486676	-0.03275916094940396	-0.01141541700196092	-0.3915671265230059	0.07753182819250928	0.0119505736784888	0.118853987929743	-6.959482168725685	4.624751759805934	-10.83739969171919	0.4013656550258538	-461.7562994216158	-156.1241404441268	-0.01524413277144151	0.3651370366944715	0.05077243694935741	0.02377860751436551	-0.3397794486379001	-0.3015744903566724	-12.34953298297319	-0.07506326610354078	0.2187986538877139	0.2187986538877024	10.98001935870684	5.436326653868648	0.1851902786927526	-0.1013785876571145	1.094061087314144e-07	-4.297708622716241e-07	2.793455191966015e-08	2.094564023607565e-07	-1.724392596862198e-07	-2.100582498248596e-06	2.928572572692669e-07
1.01	-0.2041203548541415	-0.01618568868911916	0.3560710003983429	2.181619682683536	-0.2419950788810654	0.4867158653598178	-0.4362240250754474	2.181630023680538	2.181630023680531	0.08909092359391538	-0.1744148709991245	0.4361965023646847	0.4197961250098796	0.001641066896345524	-0.0004407745103311448	-0.0002008583257956722	-0.001072941790437307	0.002484075673042979	-0.03233615334958247	0.001482469582845455	0.001126401354422588	0.001126401354422532	0.0307509922349735	0.02030647155735591	-0.0006429908547354092	0.004394516333841741	-0.1014527130619285	-0.03267087166503383	-0.0108099324335993	-0.392910266855458	0.07794101906914279	0.01124655036875578	0.11788070722642	-7.085754798323374	5.098922959138963	-11.08011156112805	1.421275402781942	-462.1813543690414	-155.3840109710916	-0.01523929296331743	0.4910360865904799	0.0296459081929305	0.04320855119639547	-0.002737015246960889	-1.258625635316212	-8.639465038494134	-0.3554380145986324	-0.08214581586770593	-0.08214581586772624	6.90723422006486	1.371394412942359	-0.1809674559173374	-2.175460427140105	1.027961204654557e-06	-1.738846502726058e-06	-2.538645204052145e-07	8.703225902236232e-07	-1.016090773683093e-06	-9.848337755077224e-06	1.703473356878142e-06
1.02	-0.2040771801800916	-0.01618897677821724	0.3560715120996603	2.181614755554616	-0.2420501282926366	0.4860454269971352	-0.4362318276708513	2.181631635941426	2.181631635941441	0.08965441790996402	-0.1742245267397791	0.4361744998150979	0.4196941453322403	0.00720692373986485	-0.0002540423835058082	0.0003390907474217926	0.0006631089318396954	-0.0151391829676527	-0.09441646425335848	-0.003519403813823889	-0.001329096458463561	-0.001329096458463584	0.07408227984505973	0.01031239061730677	-0.00439007947729242	-0.02837879268721737	-0.1005288715751892	-0.03258258238066462	-0.01020444786523035	-0.3942534071879089	0.07835020994577835	0.01054252705902292	0.1169074265230969	-7.223515714428744	5.594864490072921	-11.34886126629875	2.518393563819591	-462.7120973824836	-154.4195877360838	-0.01524080492723405	0.6231753112381615	0.007536744721807412	0.06520981716016308	0.3530755080139993	-2.276095955332337	-3.546037151910244	-0.6467614450640247	-0.4141264389267941	-0.4141264389267945	1.543938146058266	-3.505545155545844	-0.5727152842073943	-4.405133199161439	5.040609276556664e-08	-9.191243146408197e-07	1.022765529996436e-07	4.68020272533468e-07	-2.923244873961603e-07	-4.308708049198935e-06	5.115595001817849e-07
1.03	-0.2039872190147099	-0.01619188594449007	0.3560767066558195	2.181631394403282	-0.2422639350410467	0.4850272017827088	-0.4362851275775629	2.181606123626819	2.181606123626805	0.09041612490656536	-0.1742299334744199	0.4361129262704663	0.4192873603595451	0.009453645704098082	-0.000401851672880666	0.0005508734240826864	0.001914110349829233	-0.02248140866421642	-0.09945958919434954	-0.005706457508927266	-0.002924548204313624	-0.002924548204313664	0.07312703623568065	-0.0044534457226177	-0.006820551106721215	-0.04324211674961491	-0.09990077266712727	-0.0308895823539675	-0.00939577526741741	-0.3941693831487145	0.07930465259815894	0.01267405803455555	0.116715828240892	-6.267343227020885	4.287333282023502	-10.89552297531098	0.9435864922889313	-460.7997851698121	-157.1285888641344	-0.01544605652199068	-0.1745182015122781	-0.03704041612498372	-0.02308559558410152	-0.1016519731344275	0.8077299815308505	2.481875870419703	0.2104406712670401	0.09521696324707329	0.09521696324704636	-1.685120237452097	0.5789852014247436	0.08718893922291247	1.433455035109098	-9.464970824684564e-07	-7.767969973373643e-08	4.649272197282781e-07	5.486929662337813e-08	4.474358580773506e-07	1.366507217523377e-06	-7.069107846401508e-07
1.04	-0.2039147783977943	-0.01619849333372855	0.3560795694210448	2.181637990379765	-0.2423969608747528	0.4842516105259968	-0.4363172744206218	2.181590151095886	2.181590151095837	0.0910143065424739	-0.1741747809575304	0.4360601284178408	0.4190240195552036	0.003702814047219063	-0.0009936869766335522	-0.0001272674393646634	-0.00134546550521425	0.001016999973189106	-0.04588967271081108	0.0007112089160028621	0.0005788602762838745	0.0005788602762838372	0.04137720770565798	0.02242424092307741	-0.002634941074808705	0.0003100409835079979	-0.09927267375906364	-0.02919658232727124	-0.008587102669599632	-0.3940853591095188	0.08025909525054137	0.01480558901008843	0.1165242299586885	-5.312921474727469	2.979273942323029	-10.44114488914836	-0.641316809717895	-458.8596797292907	-159.889901082599	-0.01564657696593368	-0.9763354129842712	-0.08126845815379838	-0.1127748908614919	-0.5490399465925941	3.89203091146151	8.176571132995649	1.074182578942716	0.6056456063627337	0.6056456063627372	-4.614978838070442	4.823159441578056	0.7505010480608582	7.277963159942639	-3.914702055631943e-07	-1.690387058443252e-07	3.1294427700107e-07	6.420117733235615e-08	1.776582677650768e-07	2.712728826844106e-07	-2.887946717376028e-07
1.05	-0.2039103901147874	-0.01621164735286368	0.3560742696923731	2.181607724308711	-0.2422560492571174	0.4840900663951666	-0.4362738677802342	2.181615732296124	2.181615732296159	0.09125223263404801	-0.1738009421450448	0.4360569127868992	0.4192692662205669	-0.001214795032515191	-0.001553151739701135	-0.0007722995496352519	-0.00364969057816868	0.02081023104850792	0.002024514752905257	0.006236251702969157	0.003501185078968073	0.003501185078968056	0.01208759437253186	0.04345485708764331	0.0005661275656030364	0.03663430991202234	-0.09999147743729661	-0.03085517199089296	-0.009882614458197964	-0.3935242911494967	0.07890655122295946	0.01202417697164903	0.1166613877027642	-6.568085160846914	4.714304985229881	-11.06876056428355	1.516075681208195	-460.8340823217057	-155.7452332699066	-0.01541769400123154	-0.007860052331325765	-0.03067314405859788	-0.01633833649400318	0.0876507050150076	0.06966378416257706	1.365403092555575	0.03158500945835532	-0.01994411958059971	-0.01994411958062256	-1.204008253381322	-0.590277138727988	-0.1089148112550788	-0.006064387080828447	2.120544854714118e-07	-2.895478251117107e-07	1.448790339783698e-07	8.673564731067776e-08	-1.236673830404971e-07	-1.035538002203308e-06	1.80464766093826e-07
1.06	-0.2039068552019535	-0.01622787355136487	0.3560673254495219	2.181586168885444	-0.24210786641301	0.4840609762468742	-0.4362272267357918	2.181639442737028	2.181639442737143	0.0913736514578059	-0.1734834551394356	0.436042942925698	0.4195146109459381	0.003532140013232613	-0.001608122849845928	-0.0004561702752526029	0.0003966640553533979	0.002471245267647104	-0.01939887620354035	0.001358089725337422	0.0002047084095777375	0.0002047084095777337	0.01807575414150108	0.01115387954725558	-0.004785787125442019	0.0003296529850704535	-0.100710281115527	-0.03251376165451592	-0.01117812624678954	-0.3929632231894734	0.07755400719537897	0.009242764933208754	0.1167985454468418	-7.82054534276559	6.443067065228555	-11.68875498098178	3.663791127602581	-462.7911275886109	-151.6444113661729	-0.01518952345861984	0.9565734121121399	0.0196302724307486	0.07945738606914983	0.7210759947027359	-3.734412459774394	-5.690944551036724	-1.006458373976963	-0.6381146880521738	-0.6381146880521718	2.440575782348621	-5.843159299412656	-0.9600956182305385	-7.247822011150601	-6.199144736918651e-08	2.370913831601904e-07	-6.663878484815604e-08	-1.504222780117738e-07	1.109174015511314e-07	1.08382155368063e-06	-1.523861824364738e-07
1.07	-0.2038370167322262	-0.01624385877982644	0.3560655070768079	2.181614526874647	-0.2422112220781979	0.4837315190961788	-0.4362502847024156	2.18161833146987	2.181618331469914	0.09158394418088141	-0.1736024600753162	0.4359601514438502	0.4192663617067613	0.009103478590537591	-0.001677096001696947	-3.180927281303543e-05	0.004073812153470375	-0.01719805941839503	-0.03254617435110025	-0.004599379463473271	-0.003523776458522835	-0.003523776458522792	0.01565553561900151	-0.02814643102549599	-0.01043270608691054	-0.03871600569831012	-0.09999867179359494	-0.03108396813434128	-0.009738246867823232	-0.3937134484924623	0.07872918269121315	0.01199330740585652	0.1165281514376077	-6.664132487309013	4.755631966272211	-11.08803214087132	1.851528559533801	-461.0153067937922	-155.6393376390734	-0.01540420775630598	0.157478924333304	-0.03347091072840994	0.005358228621226382	0.01075408295035462	-0.1914453806460303	2.965282287107527	-0.1848456535537006	-0.1046266879489253	-0.1046266879489407	-2.832476975225364	-1.952185414486331	-0.1660541130179741	-0.5434998748888867	-3.827166687137906e-07	7.981533748118451e-07	-2.804679108982899e-07	-4.013936286161831e-07	3.740080603660188e-07	3.385424218116273e-06	-5.279025770498495e-07
1.08	-0.2037514519079702	-0.0162631957001539	0.3560642188683764	2.181643600317934	-0.242332921971772	0.4836889699107539	-0.4362918082533595	2.181587053093679	2.181587053093649	0.09152020345760041	-0.1739102118125781	0.435861077956799	0.4189655434651592	0.006677410919603199	-0.002278461223023929	-0.0003501374187572524	0.0005397548749558173	-0.001197600409513603	0.03798271685026585	-0.002335027141094787	-0.001828713397020493	-0.001828713397020383	-0.03673093513054235	-0.02659548072944445	-0.008042188164898018	-0.01018414749997473	-0.09928706247166237	-0.02965417461416755	-0.008298367488852121	-0.3944636737954499	0.07990435818704913	0.01474384987850437	0.1162577574283734	-5.498278334751552	3.051587874678412	-10.4675753603411	0.006431462688702185	-459.1992582544794	-159.7336030865939	-0.01561698534598975	-0.6429078375356962	-0.08684814146445699	-0.0690804436076088	-0.7211650806235794	3.399540279210331	11.04429331874846	0.6379059282608597	0.4465948978684062	0.4465948978684116	-7.552674663060226	2.327092874347977	0.647391758465632	6.267681365192584	2.481222711260575e-07	3.948585508004977e-07	-3.653779583559941e-07	-2.002427455604266e-07	-3.863203699969544e-08	8.280871089902099e-07	9.448698435168492e-08
